<svg width="18" height="20" viewBox="0 0 18 20" fill="none" xmlns="http://www.w3.org/2000/svg">
<g clip-path="url(#clip0)">
<path d="M17.3572 1.25001H12.5357L12.158 0.519538C12.078 0.363372 11.9548 0.232008 11.8022 0.140225C11.6496 0.0484421 11.4736 -0.00011828 11.2942 6.84871e-06H6.70178C6.52274 -0.000662313 6.34713 0.047717 6.19505 0.139602C6.04298 0.231487 5.92062 0.363161 5.84197 0.519538L5.46428 1.25001H0.642857C0.472361 1.25001 0.308847 1.31586 0.188288 1.43307C0.0677294 1.55027 0 1.70925 0 1.87501V3.12501C0 3.29077 0.0677294 3.44974 0.188288 3.56695C0.308847 3.68416 0.472361 3.75001 0.642857 3.75001H17.3572C17.5277 3.75001 17.6911 3.68416 17.8117 3.56695C17.9323 3.44974 18 3.29077 18 3.12501V1.87501C18 1.70925 17.9323 1.55027 17.8117 1.43307C17.6911 1.31586 17.5277 1.25001 17.3572 1.25001ZM2.1375 18.2422C2.16816 18.7182 2.38426 19.165 2.74181 19.4916C3.09935 19.8181 3.57147 19.9999 4.06205 20H13.938C14.4286 19.9999 14.9006 19.8181 15.2582 19.4916C15.6157 19.165 15.8318 18.7182 15.8625 18.2422L16.7143 5.00001H1.28572L2.1375 18.2422Z" fill="#6A8AAD"/>
</g>
<defs>
<clipPath id="clip0">
<rect width="18" height="20" fill="white"/>
</clipPath>
</defs>
</svg>
