<svg id="Password_Icon" data-name="Password Icon" xmlns="http://www.w3.org/2000/svg" width="35.704" height="35.704" viewBox="0 0 35.704 35.704">
  <path id="Path_25" data-name="Path 25" d="M0,0H35.7V35.7H0Z" fill="none"/>
  <path id="Path_26" data-name="Path 26" d="M25.629,11.528H24.084V8.52A7.627,7.627,0,0,0,16.359,1,7.627,7.627,0,0,0,8.635,8.52v3.008H7.09A3.059,3.059,0,0,0,4,14.536v15.04a3.059,3.059,0,0,0,3.09,3.008H25.629a3.059,3.059,0,0,0,3.09-3.008V14.536A3.059,3.059,0,0,0,25.629,11.528ZM16.359,25.064a3.009,3.009,0,1,1,3.09-3.008A3.059,3.059,0,0,1,16.359,25.064Zm4.789-13.536H11.57V8.52a4.791,4.791,0,0,1,9.578,0Z" transform="translate(1.493 0.373)" fill="rgba(0,0,205,0.53)"/>
</svg>
