<svg xmlns="http://www.w3.org/2000/svg" width="59.051" height="49.051" viewBox="0 0 59.051 49.051">
  <g id="addUser" transform="translate(-1280 -110)">
    <g id="baseline-account_balance-24px" transform="translate(1290 110)">
      <path id="Path_68" data-name="Path 68" d="M0,0H40V40H0Z" fill="none"/>
    </g>
    <g id="Group_68" data-name="Group 68" transform="translate(77.5 -22)">
      <rect id="Rectangle_197" data-name="Rectangle 197" width="5.091" height="21" transform="translate(1210.455 135)" fill="#414141"/>
      <rect id="Rectangle_198" data-name="Rectangle 198" width="5.091" height="21" transform="translate(1223.5 142.955) rotate(90)" fill="#414141"/>
    </g>
    <g id="Group_92" data-name="Group 92" transform="translate(63 -92)">
      <g id="outline-people_outline-24px" transform="translate(1227 202)">
        <path id="Path_85" data-name="Path 85" d="M0,0H49.051V49.051H0Z" fill="none"/>
        <path id="Path_86" data-name="Path 86" d="M16.307,22.883C11.524,22.883,2,25.275,2,30.037v3.577H30.613V30.037C30.613,25.275,21.089,22.883,16.307,22.883ZM6.783,29.526a19.706,19.706,0,0,1,9.524-2.555,19.706,19.706,0,0,1,9.524,2.555Zm9.524-10.219a7.153,7.153,0,1,0-7.153-7.153A7.161,7.161,0,0,0,16.307,19.307Zm0-10.219a3.066,3.066,0,1,1-3.066,3.066A3.062,3.062,0,0,1,16.307,9.088ZM30.7,23.006c2.371,1.717,4.006,4.006,4.006,7.031v3.577h8.175V30.037C42.876,25.908,35.723,23.558,30.7,23.006Zm-2.126-3.7A7.153,7.153,0,1,0,28.569,5a7.042,7.042,0,0,0-3.066.715,11.162,11.162,0,0,1,0,12.876A7.042,7.042,0,0,0,28.569,19.307Z" transform="translate(2.088 5.219)" fill="#30517b"/>
      </g>
    </g>
  </g>
</svg>
