<svg xmlns="http://www.w3.org/2000/svg" xmlns:xlink="http://www.w3.org/1999/xlink" width="55.426" height="55.426" viewBox="0 0 51.426 51.426">
  <defs>
    <filter id="Ellipse_2" x="0" y="0" width="63.426" height="63.426" filterUnits="userSpaceOnUse">
      <feOffset dx="1" dy="1" input="SourceAlpha"/>
      <feGaussianBlur stdDeviation="4" result="blur"/>
      <feFlood flood-color="#22558e"/>
      <feComposite operator="in" in2="blur"/>
      <feComposite in="SourceGraphic"/>
    </filter>
  </defs>
  <g id="ImageGroup" transform="translate(-1105.12 -241.12)">
    <g id="Path_1" data-name="Path 1" transform="translate(1106 242)" fill="#fff">
      <path d="M 24.83333969116211 49.16667938232422 C 21.54813957214355 49.16667938232422 18.36147880554199 48.52338027954102 15.36185932159424 47.2546501159668 C 12.46431922912598 46.02909088134766 9.861969947814941 44.27449798583984 7.627069473266602 42.03960800170898 C 5.392179489135742 39.80471038818359 3.637589693069458 37.20235824584961 2.41202974319458 34.3048210144043 C 1.143299698829651 31.30520057678223 0.4999997019767761 28.11853981018066 0.4999997019767761 24.83333969116211 C 0.4999997019767761 21.54813957214355 1.143299698829651 18.36147880554199 2.41202974319458 15.36185932159424 C 3.637589693069458 12.46431922912598 5.392179489135742 9.861969947814941 7.627069473266602 7.627069473266602 C 9.861969947814941 5.392179489135742 12.46431922912598 3.637589693069458 15.36185932159424 2.41202974319458 C 18.36147880554199 1.143299698829651 21.54813957214355 0.4999997019767761 24.83333969116211 0.4999997019767761 C 28.11853981018066 0.4999997019767761 31.30520057678223 1.143299698829651 34.3048210144043 2.41202974319458 C 37.20235824584961 3.637589693069458 39.80471038818359 5.392179489135742 42.03960800170898 7.627069473266602 C 44.27449798583984 9.861969947814941 46.02909088134766 12.46431922912598 47.2546501159668 15.36185932159424 C 48.52338027954102 18.36147880554199 49.16667938232422 21.54813957214355 49.16667938232422 24.83333969116211 C 49.16667938232422 28.11853981018066 48.52338027954102 31.30520057678223 47.2546501159668 34.3048210144043 C 46.02909088134766 37.20235824584961 44.27449798583984 39.80471038818359 42.03960800170898 42.03960800170898 C 39.80471038818359 44.27449798583984 37.20235824584961 46.02909088134766 34.3048210144043 47.2546501159668 C 31.30520057678223 48.52338027954102 28.11853981018066 49.16667938232422 24.83333969116211 49.16667938232422 Z" stroke="none"/>
      <path d="M 24.83333969116211 1 C 21.61541938781738 1 18.4942798614502 1.630008697509766 15.5566291809082 2.872528076171875 C 12.71868896484375 4.072879791259766 10.16975784301758 5.791488647460938 7.980621337890625 7.980621337890625 C 5.791488647460938 10.16975784301758 4.072879791259766 12.71868896484375 2.872528076171875 15.5566291809082 C 1.630008697509766 18.4942798614502 1 21.61541938781738 1 24.83333969116211 C 1 28.05125999450684 1.630008697509766 31.17238998413086 2.872528076171875 34.11003875732422 C 4.072879791259766 36.94797897338867 5.791488647460938 39.49691772460938 7.980621337890625 41.68605041503906 C 10.16975784301758 43.87519073486328 12.71870040893555 45.59379959106445 15.5566291809082 46.79415130615234 C 18.4942798614502 48.03667068481445 21.61541938781738 48.66667938232422 24.83333969116211 48.66667938232422 C 28.05125999450684 48.66667938232422 31.17238998413086 48.03667068481445 34.11003875732422 46.79415130615234 C 36.94797897338867 45.59379959106445 39.49691772460938 43.87519073486328 41.68605041503906 41.68605041503906 C 43.87519073486328 39.49691772460938 45.59379959106445 36.94797897338867 46.79415130615234 34.11003875732422 C 48.03667068481445 31.17238998413086 48.66667938232422 28.05125999450684 48.66667938232422 24.83333969116211 C 48.66667938232422 21.61541938781738 48.03667068481445 18.4942798614502 46.79415130615234 15.5566291809082 C 45.59379959106445 12.71870040893555 43.87519073486328 10.16975784301758 41.68605041503906 7.980621337890625 C 39.49691772460938 5.791488647460938 36.94797897338867 4.072879791259766 34.11003875732422 2.872528076171875 C 31.17238998413086 1.630008697509766 28.05125999450684 1 24.83333969116211 1 M 24.83333969116211 0 C 38.54840850830078 0 49.66667938232422 11.11825942993164 49.66667938232422 24.83333969116211 C 49.66667938232422 38.54840850830078 38.54840850830078 49.66667938232422 24.83333969116211 49.66667938232422 C 11.11825942993164 49.66667938232422 0 38.54840850830078 0 24.83333969116211 C 0 11.11825942993164 11.11825942993164 0 24.83333969116211 0 Z" stroke="none" fill="#707070"/>
    </g>
    <g transform="matrix(1, 0, 0, 1, 1100.12, 236.12)" filter="url(#Ellipse_2)">
      <circle id="Ellipse_2-2" data-name="Ellipse 2" cx="19.713" cy="19.713" r="19.713" transform="translate(11 11)" fill="#fff"/>
    </g>
    <path id="Subtraction_1" data-name="Subtraction 1" d="M20.436,20.14H0a10.243,10.243,0,0,1,7.907-9.3,5.632,5.632,0,1,1,4.4-.049,10.16,10.16,0,0,1,3.1,1.2,10.226,10.226,0,0,1,5.032,8.149h0Z" transform="translate(1120.994 255.476)" fill="#b3b3b5"/>
  </g>
</svg>
