<svg id="userM" xmlns="http://www.w3.org/2000/svg" width="40" height="40" viewBox="0 0 40 40">
  <path id="Path_59" data-name="Path 59" d="M0,0H40V40H0Z" fill="none"/>
  <path id="Path_60" data-name="Path 60" d="M13.871,20.495C9.9,20.495,2,22.567,2,26.693v3.1H25.742v-3.1C25.742,22.567,17.839,20.495,13.871,20.495Zm-7.9,5.755a15.831,15.831,0,0,1,7.9-2.214,15.831,15.831,0,0,1,7.9,2.214Zm7.9-8.854a6.078,6.078,0,0,0,5.935-6.2A6.078,6.078,0,0,0,13.871,5a6.078,6.078,0,0,0-5.935,6.2A6.078,6.078,0,0,0,13.871,17.4Zm0-8.854A2.6,2.6,0,0,1,16.415,11.2a2.546,2.546,0,1,1-5.087,0A2.6,2.6,0,0,1,13.871,8.542ZM25.809,20.6a7.5,7.5,0,0,1,3.324,6.092v3.1h6.783v-3.1C35.917,23.116,29.981,21.079,25.809,20.6ZM24.046,17.4a6.078,6.078,0,0,0,5.935-6.2A6.078,6.078,0,0,0,24.046,5a5.641,5.641,0,0,0-2.544.62,10.022,10.022,0,0,1,0,11.156A5.641,5.641,0,0,0,24.046,17.4Z" transform="translate(1.042 2.604)" fill="#dadddf"/>
</svg>
