<svg xmlns="http://www.w3.org/2000/svg" width="33.353" height="35.576" viewBox="0 0 33.353 35.576">
  <g id="Username_Icon" data-name="Username Icon" transform="translate(0)" fill="none">
    <path d="M0,35.576A16.667,16.667,0,0,1,14.545,19.034a9.635,9.635,0,1,1,4.262,0A16.663,16.663,0,0,1,33.353,35.576H0Z" stroke="none"/>
    <path d="M 30.02398109436035 32.57617568969727 C 29.84677314758301 31.78363037109375 29.5982666015625 31.00802612304688 29.27937889099121 30.25385665893555 C 28.59023857116699 28.62513542175293 27.6036491394043 27.16204643249512 26.34761810302734 25.90580558776855 C 25.08979797363281 24.64849662780762 23.62666893005371 23.66185569763184 21.99925804138184 22.97347640991211 C 20.85563850402832 22.48991584777832 19.65445899963379 22.16580581665039 18.42906761169434 22.01013565063477 L 18.14632797241211 16.10773658752441 C 19.58879852294922 15.78201580047607 20.89987754821777 14.96408557891846 21.83806800842285 13.80463600158691 C 22.80184936523438 12.61355590820313 23.311279296875 11.17176628112793 23.311279296875 9.635135650634766 C 23.311279296875 5.976505756378174 20.33476829528809 2.999995946884155 16.67614936828613 2.999995946884155 C 13.01779842376709 2.999995946884155 10.04150867462158 5.976505756378174 10.04150867462158 9.635135650634766 C 10.04150867462158 11.17174625396729 10.55093860626221 12.61353588104248 11.51472854614258 13.80463600158691 C 12.45288848876953 14.96406555175781 13.76382827758789 15.78194618225098 15.20607852935791 16.10761642456055 L 14.92358875274658 22.00998687744141 C 13.69761848449707 22.16582679748535 12.49661827087402 22.48992538452148 11.35372829437256 22.97338676452637 C 9.725648880004883 23.66192626953125 8.26287841796875 24.64836502075195 7.00588846206665 25.90545654296875 C 5.749138355255127 27.1621150970459 4.762338638305664 28.62521553039551 4.07343864440918 30.25291633605957 C 3.754433155059814 31.007568359375 3.50582480430603 31.7835521697998 3.32856297492981 32.57617568969727 L 30.02398109436035 32.57617568969727 M 33.3525390625 35.57617568969727 L -0.0001215039083035663 35.57617568969727 C -0.0001215039083035663 33.32421493530273 0.4411585032939911 31.140625 1.310178518295288 29.08483505249023 C 2.150508403778076 27.099365234375 3.352908611297607 25.31567573547363 4.884648323059082 23.78405570983887 C 6.416138648986816 22.25244522094727 8.199338912963867 21.0501766204834 10.18517875671387 20.21032524108887 C 11.58532810211182 19.61804580688477 13.0452880859375 19.22460556030273 14.5452880859375 19.033935546875 C 10.24975872039795 18.06396675109863 7.041508674621582 14.22424602508545 7.041508674621582 9.635135650634766 C 7.041508674621582 4.313846111297607 11.35509872436523 -4.062500011059456e-06 16.67614936828613 -4.062500011059456e-06 C 21.99767875671387 -4.062500011059456e-06 26.311279296875 4.313846111297607 26.311279296875 9.635135650634766 C 26.311279296875 14.22424602508545 23.1031494140625 18.06396675109863 18.80712890625 19.03405570983887 C 20.30712890625 19.22460556030273 21.76684761047363 19.61804580688477 23.16759872436523 20.21032524108887 C 25.15307807922363 21.0501766204834 26.936279296875 22.25244522094727 28.46850776672363 23.78405570983887 C 29.9998779296875 25.31567573547363 31.2021484375 27.099365234375 32.04224014282227 29.08483505249023 C 32.9114990234375 31.140625 33.3525390625 33.32470703125 33.3525390625 35.575927734375 L 33.3525390625 35.57617568969727 Z" stroke="none" fill="rgba(0,0,205,0.53)"/>
  </g>
</svg>
